<?xml version="1.0" encoding="UTF-8"?>
<!DOCTYPE svg PUBLIC "-//W3C//DTD SVG 1.1//EN" "http://www.w3.org/Graphics/SVG/1.1/DTD/svg11.dtd">
<svg xmlns="http://www.w3.org/2000/svg" version="1.1" width="512px" height="512px" style="shape-rendering:geometricPrecision; text-rendering:geometricPrecision; image-rendering:optimizeQuality; fill-rule:evenodd; clip-rule:evenodd" xmlns:xlink="http://www.w3.org/1999/xlink">
<g><path style="opacity:0.984" fill="#010101" d="M 85.5,-0.5 C 94.5,-0.5 103.5,-0.5 112.5,-0.5C 141.705,4.86889 163.538,20.5356 178,46.5C 214.225,27.5159 252.392,22.3493 292.5,31C 306.777,34.2023 320.277,39.3689 333,46.5C 347.454,20.5456 369.287,4.87892 398.5,-0.5C 407.167,-0.5 415.833,-0.5 424.5,-0.5C 465.811,7.97816 490.644,32.9782 499,74.5C 502.726,116.221 486.559,147.388 450.5,168C 437.344,213.955 424.344,259.955 411.5,306C 421.785,325.972 425.952,347.139 424,369.5C 418.756,393.413 404.423,409.08 381,416.5C 373.356,442.411 366.022,468.411 359,494.5C 355.793,502.994 349.96,508.661 341.5,511.5C 301.833,511.5 262.167,511.5 222.5,511.5C 169.135,503.069 130.301,474.735 106,426.5C 103.365,421.263 101.532,415.763 100.5,410C 100.562,405.003 102.896,401.836 107.5,400.5C 111.721,399.808 115.387,400.808 118.5,403.5C 137.336,453.763 173.336,482.93 226.5,491C 258.172,491.833 289.839,491.667 321.5,490.5C 316.706,478.54 308.039,471.04 295.5,468C 282.167,467.667 268.833,467.333 255.5,467C 247.977,462.885 246.643,457.218 251.5,450C 252.833,449.333 254.167,448.667 255.5,448C 263.969,449.45 270.803,446.95 276,440.5C 288.984,415.256 283.151,395.756 258.5,382C 253.017,380.046 247.351,379.046 241.5,379C 234.947,376.27 232.78,371.437 235,364.5C 236.5,363 238,361.5 239.5,360C 267.96,359.059 287.96,371.559 299.5,397.5C 302.499,387.506 305.499,377.506 308.5,367.5C 300.422,365.603 296.922,360.603 298,352.5C 299.167,350 301,348.167 303.5,347C 312.167,346.667 320.833,346.333 329.5,346C 340.882,343.618 346.882,336.618 347.5,325C 346.998,314.334 341.665,307.334 331.5,304C 300.833,303.667 270.167,303.333 239.5,303C 209.118,299.634 181.784,288.801 157.5,270.5C 139.497,285.47 126.664,304.137 119,326.5C 115.873,329.71 112.039,331.043 107.5,330.5C 103.217,328.621 100.883,325.287 100.5,320.5C 108.254,295.653 121.588,274.32 140.5,256.5C 118.993,233.812 106.993,206.812 104.5,175.5C 64.3692,176.028 35.5358,158.362 18,122.5C 3.98092,83.7554 11.4809,49.9221 40.5,21C 53.7508,10.0401 68.7508,2.87348 85.5,-0.5 Z"/></g>
<g><path style="opacity:1" fill="#a4baca" d="M 88.5,19.5 C 120.782,16.9696 144.782,29.6363 160.5,57.5C 154.686,62.255 149.02,67.255 143.5,72.5C 130.664,45.8279 109.997,36.6613 81.5,45C 55.1022,59.8586 47.6022,81.3586 59,109.5C 70.5104,127.839 87.0104,135.839 108.5,133.5C 106.25,140.661 104.917,147.994 104.5,155.5C 70.3546,155.825 47.188,140.159 35,108.5C 26.0809,74.9137 35.9142,48.4137 64.5,29C 72.1861,24.7224 80.1861,21.5558 88.5,19.5 Z"/></g>
<g><path style="opacity:1" fill="#a4baca" d="M 401.5,19.5 C 440.625,17.8286 466.125,35.4952 478,72.5C 482.838,101.168 474.005,124.501 451.5,142.5C 447.979,135.479 442.646,130.313 435.5,127C 457.294,110.903 462.794,90.4026 452,65.5C 435.427,41.7565 413.927,35.9231 387.5,48C 378.456,54.2118 371.79,62.3784 367.5,72.5C 361.98,67.255 356.314,62.255 350.5,57.5C 361.539,36.8155 378.539,24.1488 401.5,19.5 Z"/></g>
<g><path style="opacity:1" fill="#a6bccc" d="M 239.5,47.5 C 285.849,44.3315 325.349,58.9981 358,91.5C 365.913,100.983 372.58,111.316 378,122.5C 378.667,124.167 378.667,125.833 378,127.5C 374.946,130.942 372.946,134.942 372,139.5C 361.389,178.658 350.389,217.658 339,256.5C 309.449,277.098 276.615,285.931 240.5,283C 192.181,277.285 156.681,253.119 134,210.5C 112.832,149.003 129.665,100.836 184.5,66C 201.776,56.2972 220.109,50.1306 239.5,47.5 Z"/></g>
<g><path style="opacity:1" fill="#fcfcfc" d="M 93.5,61.5 C 109.276,59.9661 119.776,66.6328 125,81.5C 127.022,97.292 120.522,107.792 105.5,113C 89.708,115.022 79.208,108.522 74,93.5C 72.1008,77.6201 78.6008,66.9535 93.5,61.5 Z"/></g>
<g><path style="opacity:1" fill="#fcfcfc" d="M 405.5,61.5 C 421.276,59.9661 431.776,66.6328 437,81.5C 439.022,97.292 432.522,107.792 417.5,113C 401.708,115.022 391.208,108.522 386,93.5C 384.101,77.6201 390.601,66.9535 405.5,61.5 Z"/></g>
<g><path style="opacity:1" fill="#040505" d="M 188.5,135.5 C 198.503,135.002 202.67,139.668 201,149.5C 198.259,154.419 194.092,156.252 188.5,155C 182.975,152.081 181.142,147.581 183,141.5C 184.36,138.977 186.193,136.977 188.5,135.5 Z"/></g>
<g><path style="opacity:1" fill="#040505" d="M 315.5,135.5 C 325.503,135.002 329.67,139.668 328,149.5C 325.259,154.419 321.092,156.252 315.5,155C 309.975,152.081 308.142,147.581 310,141.5C 311.36,138.977 313.193,136.977 315.5,135.5 Z"/></g>
<g><path style="opacity:1" fill="#87dc8d" d="M 396.5,137.5 C 407.835,140.602 419.168,143.768 430.5,147C 432.357,148.182 433.357,149.849 433.5,152C 418.287,205.066 403.454,258.233 389,311.5C 383.671,319.662 376.838,326.329 368.5,331.5C 368.882,315.103 362.882,301.603 350.5,291C 364.241,241.543 378.074,192.043 392,142.5C 393.025,140.313 394.525,138.646 396.5,137.5 Z"/></g>
<g><path style="opacity:1" fill="#010202" d="M 246.5,146.5 C 267.947,143.817 282.447,152.483 290,172.5C 290.667,183.5 290.667,194.5 290,205.5C 282.723,227.564 267.556,236.397 244.5,232C 232.036,227.207 224.203,218.373 221,205.5C 220.063,193.429 220.396,181.429 222,169.5C 227.164,158.499 235.33,150.832 246.5,146.5 Z"/></g>
<g><path style="opacity:1" fill="#6a8ea7" d="M 249.5,166.5 C 260.037,164.681 267.204,168.681 271,178.5C 271.905,186.911 271.572,195.245 270,203.5C 266.132,211.018 259.965,214.185 251.5,213C 245.26,211.092 241.427,206.925 240,200.5C 239.333,193.167 239.333,185.833 240,178.5C 241.892,173.447 245.058,169.447 249.5,166.5 Z"/></g>
<g><path style="opacity:0.999" fill="#a6bccc" d="M 107.5,400.5 C 105.423,392.299 104.09,383.966 103.5,375.5C 112.883,372.848 115.383,367.181 111,358.5C 108.486,356.996 105.986,355.662 103.5,354.5C 104.187,346.38 105.52,338.38 107.5,330.5C 112.039,331.043 115.873,329.71 119,326.5C 126.664,304.137 139.497,285.47 157.5,270.5C 181.784,288.801 209.118,299.634 239.5,303C 270.167,303.333 300.833,303.667 331.5,304C 341.665,307.334 346.998,314.334 347.5,325C 346.882,336.618 340.882,343.618 329.5,346C 320.833,346.333 312.167,346.667 303.5,347C 301,348.167 299.167,350 298,352.5C 296.922,360.603 300.422,365.603 308.5,367.5C 305.499,377.506 302.499,387.506 299.5,397.5C 287.96,371.559 267.96,359.059 239.5,360C 238,361.5 236.5,363 235,364.5C 232.78,371.437 234.947,376.27 241.5,379C 247.351,379.046 253.017,380.046 258.5,382C 283.151,395.756 288.984,415.256 276,440.5C 270.803,446.95 263.969,449.45 255.5,448C 254.167,448.667 252.833,449.333 251.5,450C 246.643,457.218 247.977,462.885 255.5,467C 268.833,467.333 282.167,467.667 295.5,468C 308.039,471.04 316.706,478.54 321.5,490.5C 289.839,491.667 258.172,491.833 226.5,491C 173.336,482.93 137.336,453.763 118.5,403.5C 115.387,400.808 111.721,399.808 107.5,400.5 Z"/></g>
<g><path style="opacity:1" fill="#a4baca" d="M 398.5,332.5 C 399.79,333.058 400.623,334.058 401,335.5C 406.777,351.871 405.444,367.538 397,382.5C 384.571,396.207 369.737,400.041 352.5,394C 345.908,387.894 343.742,380.394 346,371.5C 348.194,365.926 351.694,361.426 356.5,358C 372.932,353.294 386.932,344.794 398.5,332.5 Z"/></g>
<g><path style="opacity:0.952" fill="#020203" d="M 103.5,354.5 C 105.986,355.662 108.486,356.996 111,358.5C 115.383,367.181 112.883,372.848 103.5,375.5C 96.9372,375.103 93.6039,371.603 93.5,365C 93.9002,358.765 97.2335,355.265 103.5,354.5 Z"/></g>
<g><path style="opacity:1" fill="#86db8c" d="M 324.5,383.5 C 328.205,402.87 339.872,414.204 359.5,417.5C 353.062,439.527 346.562,461.527 340,483.5C 333.833,468 323,457.167 307.5,451C 306.941,450.275 306.608,449.442 306.5,448.5C 312.507,426.816 318.507,405.149 324.5,383.5 Z"/></g>
</svg>
